HIERARCHY
ROOT Hips
{
  OFFSET 267.745 86.9975 -272.335
  CHANNELS 6 Xposition Yposition Zposition Zrotation Xrotation Yrotation
  JOINT LeftUpLeg
  {
    OFFSET 8.64259 1.95398 -2.38835
    CHANNELS 3 Zrotation Xrotation Yrotation
    JOINT LeftLeg
    {
      OFFSET 43.7702 0 0
      CHANNELS 3 Zrotation Xrotation Yrotation
      JOINT LeftFoot
      {
        OFFSET 40.6238 0 0
        CHANNELS 3 Zrotation Xrotation Yrotation
        JOINT LeftToeBase
        {
          OFFSET 12.7242 0 0
          CHANNELS 3 Zrotation Xrotation Yrotation
          End Site
          {
            OFFSET 0 0 0
          }
        }
      }
    }
  }
  JOINT RightUpLeg
  {
    OFFSET -8.2249 1.95398 -2.59336
    CHANNELS 3 Zrotation Xrotation Yrotation
    JOINT RightLeg
    {
      OFFSET 43.5653 0 0
      CHANNELS 3 Zrotation Xrotation Yrotation
      JOINT RightFoot
      {
        OFFSET 40.6238 0 0
        CHANNELS 3 Zrotation Xrotation Yrotation
        JOINT RightToeBase
        {
          OFFSET 12.7242 0 0
          CHANNELS 3 Zrotation Xrotation Yrotation
          End Site
          {
            OFFSET 0 0 0
          }
        }
      }
    }
  }
  JOINT Spine
  {
    OFFSET 0.165834 0.87714 6.61349
    CHANNELS 3 Zrotation Xrotation Yrotation
    JOINT Spine1
    {
      OFFSET 7.38963 1.71661e-005 0
      CHANNELS 3 Zrotation Xrotation Yrotation
      JOINT Spine2
      {
        OFFSET 11.9445 1.14441e-005 0
        CHANNELS 3 Zrotation Xrotation Yrotation
        JOINT Spine3
        {
          OFFSET 14.7254 4.19617e-005 0
          CHANNELS 3 Zrotation Xrotation Yrotation
          JOINT Spine4
          {
            OFFSET 10.9679 0 0
            CHANNELS 3 Zrotation Xrotation Yrotation
            JOINT RightShoulder
            {
              OFFSET 2.46616 -1.6653 3.69651
              CHANNELS 3 Zrotation Xrotation Yrotation
              JOINT RightArm
              {
                OFFSET 13.0012 0 0
                CHANNELS 3 Zrotation Xrotation Yrotation
                JOINT RightForeArm
                {
                  OFFSET 28.7848 1.52588e-005 0
                  CHANNELS 3 Zrotation Xrotation Yrotation
                  JOINT RightHand
                  {
                    OFFSET 26.5688 1.52588e-005 0
                    CHANNELS 3 Zrotation Xrotation Yrotation
                    End Site
                    {
                      OFFSET 0 0 0
                    }
                  }
                }
              }
            }
            JOINT LeftShoulder
            {
              OFFSET 2.38034 -1.29275 -3.7523
              CHANNELS 3 Zrotation Xrotation Yrotation
              JOINT LeftArm
              {
                OFFSET 16.3182 6.10352e-005 0
                CHANNELS 3 Zrotation Xrotation Yrotation
                JOINT LeftForeArm
                {
                  OFFSET 27.0901 0 0
                  CHANNELS 3 Zrotation Xrotation Yrotation
                  JOINT LeftHand
                  {
                    OFFSET 24.5451 1.52588e-005 0
                    CHANNELS 3 Zrotation Xrotation Yrotation
                    End Site
                    {
                      OFFSET 0 0 0
                    }
                  }
                }
              }
            }
            JOINT Neck
            {
              OFFSET 5.0226 -0.0266342 0
              CHANNELS 3 Zrotation Xrotation Yrotation
              JOINT Head
              {
                OFFSET 6.69364 2.86102e-005 0
                CHANNELS 3 Zrotation Xrotation Yrotation
                End Site
                {
                  OFFSET 0 0 0
                }
              }
            }
          }
        }
      }
    }
  }
}
MOTION
Frames:	10
Frame Time:	0.0416667
84.4724 96.9418 -106.815 -103.178 -47.2031 -99.1311 179.792 12.0543 87.3024 -11.8683 10.3205 1.19248 50.1779 -0.695255 7.71903 46.3072 -1.70062 6.8597 175.007 -1.03891 89.4691 -31.0439 -6.64581 -0.683907 71.1568 2.54423 16.0933 29.4507 -0.458387 3.49972 0.643601 7.77968 -90.6303 11.319 0.987133 -1.35347 -0.352325 0.926607 -1.39561 -22.887 1.34825 -0.994252 -2.87441 1.34825 -0.994266 100.832 -52.8128 -84.1795 20.1928 -11.0994 -12.5018 -4.83061 -16.3467 -25.5316 -9.40472 -0.365153 -0.696773 -84.5343 -54.4173 87.2162 -29.2391 -5.38717 -5.44769 -2.63501 44.2202 0.00676168 -1.8703 -0.101611 -6.89694 3.93367 0.810623 -2.69923 -21.8316 0.523115 4.78458 
78.1506 96.1314 -100.897 -101.783 -45.4627 -97.0003 -179.126 16.6361 87.9061 -6.83627 13.2297 1.96346 56.9974 -1.63958 2.06009 39.9893 -1.34683 4.65721 175.107 -6.19295 90.3682 -30.0399 -7.18445 -1.22518 70.6705 2.34801 18.1453 36.1337 -1.89703 3.33281 0.83184 7.7072 -90.5907 11.4668 1.37904 -1.31673 -0.204152 1.31977 -1.37615 -22.7427 1.71101 -0.841365 -2.73001 1.711 -0.841365 100.18 -53.5176 -85.1383 17.6748 -12.0265 -16.962 -6.72107 -17.6724 -27.7683 -8.32026 -0.342442 -0.406068 -83.9741 -54.1229 87.9934 -29.5564 -6.06341 -5.2047 -2.1569 44.8314 0.00590678 -3.44361 -0.0583557 -7.91851 3.73151 0.881463 -4.29424 -21.5903 0.619496 6.43334 
71.2571 94.5839 -93.7382 -101.247 -45.4586 -97.1906 -179.715 17.4832 86.8139 -11.5888 15.3159 1.58839 51.4878 -3.84434 6.243 42.6268 -1.54433 6.25094 174.84 -10.332 88.8321 -32.2398 -9.09412 -2.13676 66.4582 4.54295 21.594 47.3904 -4.02867 5.2308 0.897807 7.60908 -90.3205 11.6625 1.63552 -0.810706 -0.00769614 1.59827 -0.881916 -22.5506 1.80355 -0.281545 -2.53796 1.80357 -0.281551 100.697 -54.2052 -84.3482 19.4357 -11.1906 -15.0268 -7.74968 -16.4843 -30.3629 -9.08825 -0.429685 0.353182 -83.9226 -54.7432 88.1303 -28.4873 -7.31802 -8.75441 -1.28981 49.5929 0.00476091 -3.21115 -0.070541 -7.41261 4.72474 0.423772 -5.37813 -21.6044 0.436843 6.19596 
64.155 93.0535 -86.2154 -101.377 -45.3682 -99.0013 179.545 20.0275 84.1202 -27.9585 17.4501 2.26344 53.3026 -3.31125 13.6638 40.5623 -1.19184 -3.79998 172.63 -10.0949 84.717 -39.3666 -9.54272 -2.18931 47.6974 11.6261 28.684 40.7155 -2.78112 20.4022 0.830674 7.49278 -89.8819 11.8905 1.70724 0.0515431 0.220745 1.70788 -0.02367 -22.3228 1.6128 0.562395 -2.31018 1.61283 0.562403 101.155 -54.1283 -83.6704 23.5144 -12.4584 -8.92223 -8.09069 -16.9554 -30.3546 -8.94405 -0.3871 -0.192127 -84.2238 -54.8851 87.7126 -27.5913 -7.69015 -11.8039 -0.957351 49.9893 0.00269625 -1.13163 -0.0955318 -5.53669 6.21297 0.230637 -5.17721 -22.2291 0.451785 4.88229 
57.5541 93.1415 -79.355 -103.017 -44.5942 -101.295 -179.417 15.1424 82.3451 -34.1719 17.5343 1.99441 60.0354 2.26972 18.6031 38.7527 -0.915672 -6.82582 174.1 0.910147 83.5425 -58.9127 -16.1089 -2.87949 41.1569 13.5774 18.138 47.4324 -3.66427 11.6815 0.53567 7.66063 -89.6099 11.5491 1.24824 0.649025 -0.121433 1.2756 0.593447 -22.6586 0.995495 0.994183 -2.64597 0.995458 0.994166 100.764 -54.0654 -84.2513 27.352 -11.0778 -5.80794 -7.9934 -21.2432 -26.475 -6.85606 -0.395785 1.66213 -84.3334 -54.3187 87.4951 -27.908 -6.79897 -17.574 -0.654493 49.7702 0.000507181 0.565114 -0.183905 -8.01013 7.75263 1.07822 -4.15598 -23.3463 0.94233 5.77637 
51.2447 94.4156 -72.5209 -104.161 -46.6566 -99.9798 -178.659 7.85148 84.3923 -33.9522 19.7802 3.30041 63.7281 5.42233 19.1626 41.0187 -1.31988 -5.40992 173.908 11.3887 86.5044 -63.9261 -12.6145 -1.67076 45.8164 11.1798 17.3938 36.7751 -2.09892 8.92703 0.0675559 7.64364 -89.906 11.5864 0.178557 0.170631 -0.084593 0.185899 0.162595 -22.6196 0.119017 0.216403 -2.60694 0.119032 0.216407 101.287 -54.0919 -83.4742 29.1911 -7.9273 -2.50804 -6.28749 -24.8734 -20.8809 -6.47539 -0.31812 0.523615 -84.2217 -53.4792 87.5673 -28.9212 -4.81119 -24.4339 -0.648996 49.5628 0.00252998 2.262 -0.201245 -7.10957 4.65386 2.15957 -3.64936 -23.0342 1.5934 7.15277 
45.0697 95.658 -66.2748 -103.377 -50.5812 -98.3315 -176.89 0.352827 86.837 -30.2402 23.8093 3.47594 65.4998 6.83626 16.9004 41.1139 -1.35305 -3.51963 172.552 19.0944 88.6588 -53.5484 -7.91815 0.595384 53.5943 7.60795 18.1816 34.6285 -1.58534 2.7938 -0.34755 7.48199 -90.1295 11.9095 -0.752108 -0.178158 0.238807 -0.759216 -0.144899 -22.2978 -0.66379 -0.395977 -2.28518 -0.663789 -0.395976 101.644 -54.5006 -82.9416 29.6971 -5.6178 3.02131 -3.60683 -22.6923 -17.9241 -8.34448 -0.526112 2.30694 -83.9605 -51.7167 87.7629 -28.9318 -0.301882 -30.2426 -2.48043 45.034 0.459367 3.46048 -0.233826 -7.20892 2.69116 2.38263 -5.31961 -23.8345 1.80691 8.17115 
39.0849 96.0845 -60.3084 -102.241 -53.9218 -98.321 -175.544 -4.76282 88.3943 -25.7227 25.8061 3.38446 66.2453 7.34351 13.4576 42.2884 -1.51285 -0.949501 173.386 19.473 87.7975 -27.314 -0.764678 1.84957 54.3499 7.78656 20.8959 33.1856 -1.13412 1.04664 -0.573462 7.44716 -90.1371 11.9792 -1.20479 -0.142909 0.30886 -1.20991 -0.089732 -22.2302 -1.10614 -0.49844 -2.21753 -1.10612 -0.498424 101.845 -55.0604 -82.6409 30.1679 -3.87544 6.77921 -2.39788 -23.9541 -14.8776 -7.80663 -0.513499 2.65888 -83.9478 -51.0186 87.7078 -26.5165 4.31369 -35.874 0.56648 42.8254 -6.38231 2.0353 -0.243325 -8.35511 2.05 1.96995 -5.50329 -22.9893 1.61227 7.24862 
32.8136 95.8308 -54.1681 -103.479 -57.9098 -101.625 -175.389 -11.4787 89.3634 -22.9013 29.7505 4.39247 64.214 6.43632 10.6977 47.9044 -2.06012 1.45025 176.872 18.0765 85.1673 -9.06806 6.33247 -0.872959 55.8391 9.69368 23.4402 35.7983 -1.65959 -3.09862 -0.858469 7.55064 -90.0102 11.775 -1.71204 0.160909 0.105185 -1.70331 0.23612 -22.4388 -1.68122 -0.361212 -2.42613 -1.68123 -0.361226 102.509 -55.4118 -81.6698 30.8674 -1.09152 8.4461 -2.25564 -26.4424 -12.0844 -3.8623 -0.227377 1.96138 -84.3878 -50.0975 86.9414 -25.2044 7.13402 -38.6882 5.30139 40.8183 -14.6549 2.68511 -0.30993 -9.33489 2.36025 1.12899 -6.18302 -22.6537 0.769953 8.17855 
25.4 94.2887 -47.2134 -102.999 -58.7825 -100.51 -176.382 -12.8607 91.2906 -30.9994 30.6401 6.84366 60.6834 3.15913 7.35018 58.3685 -3.01556 2.32018 175.227 19.1523 86.2061 -14.3312 3.78621 1.37091 52.1469 9.90874 17.2051 29.7507 -0.269586 0.575485 -0.8882 7.43519 -90.3474 12.0041 -1.92984 -0.482986 0.334547 -1.94921 -0.39756 -22.2096 -1.69543 -1.04079 -2.19691 -1.69543 -1.04079 102.294 -54.7863 -81.9819 30.1387 0.810958 8.78647 -0.987606 -27.5117 -8.87961 -2.65912 -0.162722 2.46602 -84.3329 -51.5376 87.1896 -25.2089 7.88278 -36.026 7.2389 42.1773 -17.2456 3.46586 -0.307241 -8.61751 2.48382 1.3611 -3.65004 -23.2693 0.612446 7.79298 
